# xmcd CD database file
#
# Track frame offsets:
#	150
#	22635
#	45232
#	63670
#	81967
#	103530
#	125205
#	143095
#	160567
#	180312
#	201545
#	220227
#	240630
#	258157
#	274967
#	291585
#	311667
#	329267
#
# Disc length: 4643 seconds
#
# Revision: 0
# Processed by: cddbd v1.5.1PL0 Copyright (c) Steve Scherf et al.
# Submitted via: CDex 1.60beta1
#
DISCID=07122112
DTITLE=中森明菜 - 中森明菜コレクション 1982〜1991 [CD8]
DYEAR=1996
DGENRE=JPop
TTITLE0=MIND GAME
TTITLE1=駅
TTITLE2=約束
TTITLE3=ピンク・シャンパン
TTITLE4=OH NO, OH YES!
TTITLE5=エキゾティカ
TTITLE6=モザイクの城
TTITLE7=JEALOUS CANDLE
TTITLE8=赤のエナメル
TTITLE9=ミック・ジャガーに微笑みを
TTITLE10=TANGO NOIR
TTITLE11=MILONGUITA
TTITLE12=BLONDE
TTITLE13=清教徒
TTITLE14=CROSS MY PALM
TTITLE15=POLITICAL MOVES
TTITLE16=SLAVE FOR LOVE
TTITLE17=EASY RIDER
EXTD=YEAR: 1996
EXTT0=
EXTT1=
EXTT2=
EXTT3=
EXTT4=
EXTT5=
EXTT6=
EXTT7=
EXTT8=
EXTT9=
EXTT10=
EXTT11=
EXTT12=
EXTT13=
EXTT14=
EXTT15=
EXTT16=
EXTT17=
PLAYORDER=
